<?xml version="1.0" encoding="UTF-8"?>
<svg width="220px" height="249px" viewBox="0 0 220 249" version="1.1" xmlns="http://www.w3.org/2000/svg" xmlns:xlink="http://www.w3.org/1999/xlink">
    <!-- Generator: Sketch 52.2 (67145) - http://www.bohemiancoding.com/sketch -->
    <title>Group Copy</title>
    <desc>Created with Sketch.</desc>
    <g id="Page-1" stroke="none" stroke-width="1" fill="none" fill-rule="evenodd">
        <g id="Artboard-Copy" transform="translate(-674.000000, -480.000000)" fill="#FF5138">
            <g id="Group-Copy" transform="translate(674.000000, 480.000000)">
                <path d="M120.032575,2.6983402 L210.032575,54.8859217 C216.202233,58.4634717 220,65.0557138 220,72.1875815 L220,176.713367 C220,183.845235 216.202233,190.437477 210.032575,194.015027 L120.032575,246.202609 C113.828018,249.800396 106.171982,249.800396 99.9674247,246.202609 L9.96742465,194.015027 C3.7977672,190.437477 6.01129499e-14,183.845235 4.97379915e-14,176.713367 L1.42108547e-14,72.1875815 C7.00308182e-15,65.0557138 3.7977672,58.4634717 9.96742465,54.8859217 L99.9674247,2.6983402 C106.171982,-0.899446732 113.828018,-0.899446732 120.032575,2.6983402 Z M120.032575,26.1655481 C113.828018,22.5677612 106.171982,22.5677612 99.9674247,26.1655481 L29.9674247,66.7558893 C23.7977672,70.3334393 20,76.9256814 20,84.0575491 L20,165.388854 C20,172.520722 23.7977672,179.112964 29.9674247,182.690514 L99.9674247,223.280855 C106.171982,226.878642 113.828018,226.878642 120.032575,223.280855 L190.032575,182.690514 C196.202233,179.112964 200,172.520722 200,165.388854 L200,84.0575491 C200,76.9256814 196.202233,70.3334393 190.032575,66.7558893 L120.032575,26.1655481 Z" id="Combined-Shape"></path>
                <path d="M75.6824479,76.4466229 C75.6748337,76.4360281 75.6671992,76.4254491 75.6595444,76.4148861 L75.6926833,76.4599288 L75.7135041,76.4869959 L75.7527475,76.539484 C75.7724224,76.5666337 75.7919634,76.5938888 75.8113692,76.621248 L108.797189,121.455921 L143.865457,76.6120393 C144.001045,76.3956448 144.14481,76.1849088 144.296307,75.9802651 L144.379699,75.8664591 C144.521957,75.6805434 144.669119,75.5005141 144.821188,75.3273525 C145.70907,74.3202679 146.802981,73.4961558 148.029338,72.9202585 C149.118343,72.4125466 150.290741,72.1113532 151.477855,72.0250177 C151.713315,72.0083392 151.948776,72 152.184237,72 C153.180039,72 154.141503,72.1476534 155.044102,72.4223574 C155.049007,72.4238291 155.053913,72.4253007 155.058818,72.4267723 C155.068629,72.4297156 155.07844,72.4336399 155.093156,72.4375643 C155.102967,72.4405075 155.112778,72.4439413 155.122589,72.4473751 C155.127494,72.4483562 155.132399,72.4503184 155.137305,72.45179 C156.191972,72.783397 157.20249,73.2994481 158.129617,74.0063205 C158.345455,74.1711429 158.556389,74.3433234 158.752606,74.5223716 C158.762417,74.5302203 158.772228,74.5370879 158.777133,74.544446 C158.782039,74.5464082 158.782039,74.5483704 158.786944,74.5508231 C159.591434,75.2822225 160.273289,76.1465591 160.79817,77.1085137 C161.552202,78.4926339 161.957613,80.0334071 161.992655,81.5903391 C161.994704,81.5003169 161.995517,81.4103 161.995095,81.3203151 C161.995095,81.3262319 162,81.3331349 162,81.3385587 L162,167.132911 C162,172.579373 157.604736,176.99433 152.184237,176.99433 C146.768643,176.99433 142.373379,172.579373 142.373379,167.132911 L142.373379,111.834626 L116.285284,145.195868 C116.498561,144.909305 116.694959,144.613434 116.874256,144.309704 C116.576991,144.700401 116.24488,145.072376 115.884062,145.421027 C116.237253,145.078138 116.570822,144.703854 116.879864,144.299156 L116.882677,144.295411 C116.903767,144.259548 116.92462,144.223576 116.945233,144.187497 L116.823016,144.350172 C116.513974,144.75487 116.180405,145.129154 115.827214,145.472044 C115.518172,145.768332 115.184603,146.047941 114.831412,146.308419 C114.257477,146.730286 113.654109,147.080534 113.03112,147.361124 C111.765519,147.92623 110.396904,148.216141 109.018479,148.217122 C107.595904,148.216141 106.178236,147.906608 104.878297,147.303731 C104.250402,147.011367 103.647034,146.647385 103.073099,146.210311 C102.695381,145.922853 102.347095,145.613811 102.023337,145.286128 C101.699579,144.957464 101.395442,144.601821 101.115833,144.220669 L100.973575,144.030338 C100.815826,143.804676 100.668386,143.57338 100.531354,143.337176 L77.621716,112.193265 L77.621716,167.429992 C77.621716,172.904463 73.2264516,177.342125 67.810858,177.342125 C62.3903589,177.342125 58,172.904463 58,167.429992 L58,81.3203151 C58.0017867,81.4660652 58.0067233,81.6118784 58.0148306,81.7576429 C58.0162974,81.733659 58.0178917,81.7097007 58.0196217,81.6857695 C58.0981086,80.4015282 58.4316778,79.1383803 59.0056129,77.9738314 C59.0105184,77.96353 59.0154238,77.9522475 59.0203292,77.9414556 C59.6286024,76.7200038 60.4821471,75.642281 61.5171926,74.7750012 C61.5270034,74.7661714 61.5368143,74.7578322 61.5466252,74.7485119 C61.693788,74.6283289 61.8409509,74.5125607 61.9979246,74.3992453 C62.9250507,73.7169001 63.9306636,73.2219424 64.9706146,72.9075044 C64.9804255,72.9050516 64.9853309,72.9025989 64.9951417,72.9006368 C65.0000472,72.898184 65.009858,72.8962219 65.0196689,72.8942597 C65.9026461,72.6318193 66.839583,72.4905429 67.810858,72.4905429 C68.016886,72.4905429 68.222914,72.49692 68.4240366,72.5096741 C69.6700156,72.5886515 70.9012782,72.90358 72.0393378,73.4456299 C72.0393378,73.4461205 72.0393378,73.4471016 72.0442432,73.4485732 C72.0540541,73.4529881 72.0638649,73.458384 72.0736758,73.4632895 C73.4422905,74.1250318 74.6343097,75.0938541 75.5565304,76.2814584 C75.5614358,76.2863639 75.5663412,76.2912693 75.5663412,76.2956842 C75.5712466,76.3020612 75.5761521,76.3089288 75.5810575,76.3148153 L75.6824479,76.4466229 Z" id="Combined-Shape-Copy"></path>
            </g>
        </g>
    </g>
</svg>