<?xml version="1.0" encoding="UTF-8"?>
<svg width="1172px" height="178px" viewBox="0 0 1172 178" version="1.1" xmlns="http://www.w3.org/2000/svg" xmlns:xlink="http://www.w3.org/1999/xlink">
    <!-- Generator: Sketch 52.2 (67145) - http://www.bohemiancoding.com/sketch -->
    <title>Group 7 Copy 2</title>
    <desc>Created with Sketch.</desc>
    <g id="Page-1" stroke="none" stroke-width="1" fill="none" fill-rule="evenodd">
        <g id="Artboard-Copy" transform="translate(-368.000000, -152.000000)" fill="#FF5138">
            <g id="Group-7-Copy-2" transform="translate(368.000000, 152.000000)">
                <path d="M1021.91461,85.4419524 C1021.97105,85.9599416 1022,86.4861378 1022,87.0190676 C1022,87.5553308 1021.97069,88.0847739 1021.91357,88.6058962 C1021.16211,131.382805 990.471193,163.518702 949.790256,163.988486 C949.797101,163.988304 949.803945,163.988117 949.810788,163.987925 C949.513408,163.991398 949.216027,163.993488 948.918646,163.993523 C948.919879,163.993523 948.921115,163.993524 948.922351,163.993524 L892.465093,163.993524 C884.473129,163.993524 878,157.550232 878,149.602258 L878,24.3919853 C878,16.4432918 884.473129,10 892.465093,10 L949.457559,10 C949.594977,10 949.732396,10.0021588 949.869814,10.0064764 C949.551582,10.0021588 949.240583,10 948.922351,10 C949.233364,10.000101 949.537785,10.0022586 949.849118,10.0064764 C950.870207,10.0347074 951.864912,10.1679707 952.822671,10.3957835 C951.857997,10.1640195 950.85563,10.0284975 949.826419,10 C990.512141,10.4934689 1021.19141,42.6518446 1021.91461,85.4419524 Z M992.984334,85.7048923 C992.429893,58.6982444 974.405788,39.1574876 949.606969,38.7822731 C949.550143,38.7829245 949.493238,38.7832511 949.436255,38.7832511 L948.911305,38.7832511 L906.930186,38.7832511 L906.930186,135.210273 L948.916642,135.210273 L949.142602,135.210273 C974.167723,135.073584 992.407835,115.477797 992.983467,88.3237389 C992.944875,87.8939863 992.925163,87.45882 992.925163,87.0190676 C992.925163,86.5760744 992.94517,86.1377338 992.984334,85.7048923 Z M950.303785,164.014472 L948.878955,164.014472 C949.721812,164.014472 950.56467,164.006886 951.407527,163.994243 C951.026234,164.006886 950.66501,164.014472 950.303785,164.014472 Z" id="Combined-Shape"></path>
                <path d="M520.183625,15.5427439 C520.17235,15.5271547 520.161045,15.5115889 520.14971,15.4960465 L520.198781,15.5623222 L520.229612,15.6021486 L520.287722,15.6793794 C520.316856,15.7193274 520.345792,15.7594303 520.374528,15.7996867 L569.218914,81.7692531 L621.146927,15.786137 C621.347701,15.4677349 621.560584,15.1576587 621.784916,14.8565468 L621.908401,14.6890932 C622.119051,14.4155374 622.336965,14.1506431 622.562143,13.8958537 C623.876893,12.4140333 625.496722,11.201438 627.312674,10.3540648 C628.925239,9.60701946 630.66129,9.16384473 632.419131,9.03681093 C632.767794,9.01227031 633.116457,9 633.46512,9 C634.939673,9 636.363379,9.21725667 637.69992,9.62145511 C637.707184,9.62362046 637.714447,9.62578581 637.721711,9.62795116 C637.736239,9.63228186 637.750766,9.63805612 637.772558,9.64383039 C637.787086,9.64816108 637.801613,9.65321356 637.816141,9.65826604 C637.823405,9.65970961 637.830668,9.66259674 637.837932,9.66476209 C639.399651,10.1526874 640.895995,10.912003 642.268855,11.9520922 C642.588463,12.1946113 642.900807,12.4479571 643.191359,12.7114079 C643.205887,12.7229564 643.220414,12.7330614 643.227678,12.7438881 C643.234942,12.7467753 643.234942,12.7496624 643.242206,12.7532713 C644.43347,13.8294497 645.443139,15.1012312 646.220367,16.5166476 C647.336914,18.5532366 647.937235,20.8203244 647.989124,23.1111883 C647.992158,22.9787299 647.993361,22.8462794 647.992736,22.7138759 C647.992736,22.722582 648,22.732739 648,22.7407195 L648,148.978201 C648,156.992104 641.491628,163.488256 633.46512,163.488256 C625.445875,163.488256 618.937503,156.992104 618.937503,148.978201 L618.937503,67.6125168 L580.307054,116.70012 C580.665081,116.222115 580.990984,115.726509 581.284288,115.216407 L581.103313,115.455766 C580.645693,116.051237 580.151754,116.601958 579.62876,117.106484 C579.17114,117.542441 578.677201,117.953857 578.154207,118.337124 C577.304341,118.957857 576.410893,119.47321 575.488389,119.88607 C575.114462,120.051976 574.734462,120.201761 574.349486,120.335266 C572.838982,121.390907 571.272983,121.925797 569.709412,121.959646 C569.760674,121.960724 569.811942,121.961296 569.863214,121.961362 C569.85595,121.961362 569.85595,121.961362 569.848686,121.961362 C569.798254,121.961362 569.747817,121.960874 569.697377,121.959897 C569.648538,121.960874 569.599702,121.961362 569.55087,121.961362 L569.543606,121.961362 C569.591936,121.961293 569.640257,121.960746 569.688568,121.959721 C568.127665,121.927725 566.564663,121.427581 565.058079,120.440864 C564.49962,120.261459 563.951044,120.048218 563.41594,119.801621 C562.486172,119.371439 561.592724,118.835876 560.742858,118.192767 C560.183545,117.769802 559.667814,117.315079 559.188403,116.832928 C558.708992,116.349334 558.258636,115.826041 557.844599,115.265216 L557.633948,114.985164 C557.400358,114.653125 557.182033,114.312798 556.979121,113.965247 L523.055233,68.140217 L523.055233,149.415325 C523.055233,157.470441 516.546861,164 508.527617,164 C500.501108,164 494,157.470441 494,149.415325 L494,22.7138759 C494.002646,22.9283321 494.009956,23.1428811 494.021961,23.3573584 C494.024133,23.3220687 494.026494,23.2868165 494.029055,23.2516042 C494.145276,21.3619765 494.639215,19.5033854 495.489081,17.7898727 C495.496345,17.7747152 495.503608,17.7581142 495.510872,17.742235 C496.411584,15.9449955 497.675487,14.3592384 499.208151,13.0831261 C499.222678,13.070134 499.237206,13.0578637 499.251733,13.0441498 C499.469648,12.867313 499.687562,12.6969722 499.920004,12.5302404 C501.292864,11.5262403 502.781944,10.7979613 504.321872,10.3352984 C504.336399,10.3316895 504.343663,10.3280806 504.358191,10.3251935 C504.365454,10.3215846 504.379982,10.3186974 504.39451,10.3158103 C505.701995,9.92965643 507.089383,9.72178294 508.527617,9.72178294 C508.832697,9.72178294 509.137777,9.73116612 509.435593,9.74993248 C511.2806,9.86613953 513.103816,10.3295242 514.789019,11.1270943 C514.789019,11.1278161 514.789019,11.1292597 514.796283,11.131425 C514.810811,11.1379211 514.825338,11.1458607 514.839866,11.1530785 C516.866469,12.1267637 518.631574,13.552285 519.99717,15.2997215 C520.004434,15.3069394 520.011698,15.3141572 520.011698,15.3206532 C520.018961,15.3300364 520.026225,15.3401414 520.033489,15.3488028 L520.183625,15.5427439 Z M574.341595,120.338 C572.799489,120.871796 571.17768,121.144428 569.546594,121.145581 C568.030193,121.144542 566.517556,120.908236 565.071006,120.44501 C566.56136,121.413954 568.127756,121.924615 569.700602,121.959456 C571.279752,121.923354 572.84808,121.376598 574.341595,120.338 Z M579.712938,117.630664 C580.650253,116.844565 581.500376,115.996978 582.241509,115.102093 L581.925438,115.467236 C581.2388,116.247659 580.497667,116.969433 579.712938,117.630664 Z" id="Combined-Shape"></path>
                <path d="M26.5442075,16.4656284 L107.060044,110.135708 L107.060044,24.3982423 C107.060044,16.446813 113.541517,10 121.527617,10 C129.520952,10 135.995191,16.446813 135.995191,24.3982423 L135.995191,148.920285 C135.999966,149.104855 136.001183,149.289443 135.998851,149.473941 C136.026778,151.683241 135.545372,153.889904 134.570135,155.906748 C135.48867,154.01874 135.995019,151.900439 135.995191,149.664093 C135.94287,151.687167 135.463875,153.69489 134.570135,155.543192 C133.759951,157.213388 132.638714,158.704326 131.278762,159.939696 C131.264294,159.949774 131.257061,159.959133 131.242593,159.969212 C131.242593,159.973532 131.235359,159.977131 131.235359,159.980731 C131.119619,160.082238 131.003878,160.182306 130.888138,160.279494 C128.508222,162.286609 125.665344,163.397434 122.779063,163.644363 C122.779063,163.645083 122.771829,163.645083 122.771829,163.645083 C122.750127,163.647243 122.728426,163.648683 122.706725,163.650843 C122.699491,163.651563 122.692257,163.651563 122.685023,163.652282 C122.663322,163.653722 122.648854,163.655162 122.627153,163.656602 C122.605452,163.658042 122.58375,163.660921 122.562049,163.662361 C122.562049,163.662361 122.554815,163.663081 122.547581,163.663081 C122.214827,163.685398 121.874839,163.697637 121.534851,163.697637 C119.458754,163.696917 117.389891,163.254891 115.480172,162.382357 C113.707894,161.568137 112.123695,160.406919 110.828847,158.986532 C110.713106,158.864867 110.604599,158.740322 110.496093,158.612898 L110.430989,158.539467 C110.213665,158.28045 110.005192,158.013677 109.806067,157.739623 C110.058949,158.100153 110.327902,158.448704 110.611833,158.784237 L28.935147,63.7650897 L28.935147,149.601758 C28.935147,157.553907 22.4536741,164 14.4675735,164 C6.47423915,164 0,157.553907 0,149.601758 L0,24.3982423 C0,24.3384896 0,24.278017 0,24.2189842 C0,24.2139448 0,24.2074656 0,24.2024262 C0,24.1837085 0,24.1635509 0,24.1448332 C0,24.1261155 0,24.1066779 0,24.0872403 C0,24.0843606 0,24.081481 0,24.0778814 C0.0506365073,22.0614076 0.51359886,20.0600519 1.39612084,18.2156371 C2.20630496,16.5195241 3.34200948,15.0084286 4.71642896,13.7579412 C4.73089654,13.7485824 4.73813032,13.7392235 4.7525979,13.7291448 C4.7525979,13.7248253 4.75983168,13.7212257 4.76706547,13.7176262 C4.87557227,13.6161186 4.99131286,13.5160508 5.10705345,13.4181427 C7.35676113,11.5175747 10.0260284,10.4211486 12.753166,10.1000678 C12.753166,10.0993479 12.7603998,10.0993479 12.7603998,10.098628 C12.7821012,10.0964682 12.8038026,10.0935886 12.8255039,10.0914288 C12.8399715,10.089989 12.8544391,10.0885492 12.8616728,10.0878293 C12.8761404,10.0863895 12.890608,10.0849496 12.9050756,10.0827899 C13.4186744,10.0280766 13.9395071,10 14.4675735,10 C14.5471452,10 14.6267168,10.0007199 14.7062885,10.0021597 C16.7028136,10.0352757 18.692105,10.4794615 20.5294868,11.3217586 C20.5367206,11.3239184 20.5367206,11.3260781 20.5439544,11.3282379 C20.558422,11.3361569 20.5728895,11.343356 20.5945909,11.3505551 C22.3089984,12.1518173 23.8425611,13.2784798 25.1157076,14.6520721 C25.1157076,14.6535119 25.1157076,14.6556716 25.1229414,14.6571115 C25.137409,14.6751093 25.1518765,14.6916673 25.1663441,14.7082252 C25.2820847,14.8313302 25.3905915,14.9565949 25.4990983,15.0847393 L25.5642024,15.1581703 C25.9148057,15.5745999 26.2421313,16.01108 26.5442075,16.4656284 Z" id="Combined-Shape"></path>
                <path d="M291.459488,118.281933 C283.496161,118.266489 277.043288,111.896124 276.977529,104.024206 C276.977191,104.064686 276.977022,104.105205 276.977022,104.145765 L276.977022,23.3777675 C276.977022,15.4375703 283.470913,9 291.488511,9 C299.498853,9 306,15.4375703 306,23.3777675 L306,104.145765 C306,104.105205 305.999831,104.064686 305.999492,104.024206 C305.996818,104.343973 305.983593,104.661262 305.960145,104.975748 C305.300878,137.620955 274.636223,165 238.405484,165 C202.56273,165 172.186026,138.044245 171.074646,105.734796 C171.05379,105.899143 171.043152,106.090968 171.043152,106.31171 L171.043152,105.933342 C170.94606,106.659086 171.043152,106.338475 171.043152,103.902756 L171.043152,23.3777675 C171.043152,15.4375703 177.537044,9 185.554641,9 C193.564983,9 200.06613,15.4375703 200.06613,23.3777675 L200.06613,103.902766 C200.06613,103.928411 200.06617,103.954061 200.066249,103.979706 C200.06877,102.262567 200.110008,102.665019 200.069106,104.28737 C200.33317,121.353372 218.132715,136.242308 238.405484,136.242308 C248.295064,136.242308 258.264457,132.538944 265.759641,126.08268 C272.971851,119.870864 276.947999,111.991059 276.947999,103.902756 C276.947999,111.840077 283.44189,118.281961 291.459488,118.281961 Z" id="Combined-Shape"></path>
                <path d="M397.974851,34.5724258 C397.628958,34.5678073 397.286552,34.5655185 396.947632,34.5655185 C387.951973,34.5655185 381.386593,36.2228158 377.788329,39.437401 C376.685635,40.4232071 373.334027,43.4234867 373.101881,53.0529552 C373.029335,55.9175078 372.811698,64.6468926 401.343898,70.7410318 C401.351152,70.7410318 401.365661,70.7474609 401.372916,70.7474609 C401.329389,70.7331739 401.278607,70.7260304 401.235079,70.7188869 C401.043079,70.6791566 400.851079,70.6433675 400.659232,70.6114692 C403.041123,71.1489679 403.878695,71.4336384 401.897068,71.0060565 C419.482131,74.6278225 432.018017,79.199677 441.347387,85.3859676 C457.590355,96.1519707 461,110.181135 461,120.054198 C461,119.646291 460.971444,119.309475 460.916176,119.037486 C461.006256,121.843988 460.789618,123.122986 460.789618,120.296363 C460.789618,132.489642 456.001606,143.804982 447.310638,152.142187 C440.172147,158.999255 427.019623,167 404.559493,167 C403.761491,167 402.941726,166.993571 402.114705,166.971426 C402.245288,166.971426 402.368615,166.978569 402.491943,166.978569 C402.889039,166.978569 403.282582,166.962781 403.671941,166.931795 C400.470311,166.882966 398.918669,166.600874 401.742533,166.671398 C401.04787,166.653914 400.659439,166.701962 399.976313,166.671398 C376.125353,165.604257 358.955816,156.608562 345.555936,147.962512 C338.85417,143.633537 336.983218,134.775569 341.377308,128.182812 C344.16306,123.995993 348.798726,121.725068 353.521447,121.725068 C356.256418,121.725068 359.013152,122.481567 361.465195,124.067429 C372.354295,131.097369 384.861163,137.661552 402.489753,138.104451 C402.42724,138.104451 404.999702,138.212769 407.936561,138.336067 C416.424672,137.871044 422.967688,135.606782 427.055896,131.682424 C430.097934,128.7656 431.370971,124.747412 431.782819,121.63702 C431.567109,116.918118 428.892391,105.738729 395.832253,98.9443737 C395.745198,98.9300867 395.665398,98.916514 395.585598,98.894369 C395.629125,98.9015126 395.672653,98.916514 395.723435,98.9236575 C395.8883,98.9589839 395.380546,98.7955671 394.415407,98.4961161 C381.378798,95.6534192 371.675817,92.0404206 363.924857,87.148989 C347.07976,76.5122838 343.844225,62.3609653 344.09088,52.35289 C344.446354,37.851539 349.219857,26.386185 358.280807,18.2897164 C367.407048,10.1232413 380.465263,6 397.15076,6 C399.326026,6 401.565923,6.07053552 403.865809,6.21069265 C406.666325,6.23369133 407.952734,6.52625078 404.936731,6.31288629 C404.907712,6.31145759 405.557942,7.16449416 405.536178,7.16235111 C405.557942,7.16449416 404.907712,6.31145759 404.936731,6.31288629 C416.674615,7.14367798 429.863412,11.3590707 445.257596,19.1990869 C452.374324,22.8244246 455.160076,31.4466565 451.474758,38.4544523 C448.899388,43.3620524 443.828447,46.1773147 438.576143,46.1773147 C436.334483,46.1773147 434.05655,45.6622667 431.923708,44.5771656 C420.25837,38.6401839 410.479217,35.3541634 402.854671,34.8112557 C402.847416,34.8112557 402.840162,34.8112557 402.840162,34.8112557 C402.840162,34.8112557 402.847416,34.8112557 402.854671,34.8112557 C402.950491,34.8189581 400.946604,34.7204477 397.974851,34.5724258 Z M432.367246,120.775316 C432.323674,120.74012 432.283298,120.698331 432.246207,120.649725 C432.283941,120.680103 432.324264,120.722273 432.367246,120.775316 Z" id="Combined-Shape"></path>
                <path d="M1108.97485,34.5724258 C1108.62896,34.5678073 1108.28655,34.5655185 1107.94763,34.5655185 C1098.95197,34.5655185 1092.38659,36.2228158 1088.78833,39.437401 C1087.68564,40.4232071 1084.33403,43.4234867 1084.10188,53.0529552 C1084.02934,55.9175078 1083.8117,64.6468926 1112.3439,70.7410318 C1112.35115,70.7410318 1112.36566,70.7474609 1112.37292,70.7474609 C1112.32939,70.7331739 1112.27861,70.7260304 1112.23508,70.7188869 C1112.04308,70.6791566 1111.85108,70.6433675 1111.65923,70.6114692 C1114.04112,71.1489679 1114.8787,71.4336384 1112.89707,71.0060565 C1130.48213,74.6278225 1143.01802,79.199677 1152.34739,85.3859676 C1168.59035,96.1519707 1172,110.181135 1172,120.054198 C1172,119.646291 1171.97144,119.309475 1171.91618,119.037486 C1172.00626,121.843988 1171.78962,123.122986 1171.78962,120.296363 C1171.78962,132.489642 1167.00161,143.804982 1158.31064,152.142187 C1151.17215,158.999255 1138.01962,167 1115.55949,167 C1114.76149,167 1113.94173,166.993571 1113.11471,166.971426 C1113.24529,166.971426 1113.36862,166.978569 1113.49194,166.978569 C1113.88904,166.978569 1114.28258,166.962781 1114.67194,166.931795 C1111.47031,166.882966 1109.91867,166.600874 1112.74253,166.671398 C1112.04787,166.653914 1111.65944,166.701962 1110.97631,166.671398 C1087.12535,165.604257 1069.95582,156.608562 1056.55594,147.962512 C1049.85417,143.633537 1047.98322,134.775569 1052.37731,128.182812 C1055.16306,123.995993 1059.79873,121.725068 1064.52145,121.725068 C1067.25642,121.725068 1070.01315,122.481567 1072.46519,124.067429 C1083.3543,131.097369 1095.86116,137.661552 1113.48975,138.104451 C1113.42724,138.104451 1115.9997,138.212769 1118.93656,138.336067 C1127.42467,137.871044 1133.96769,135.606782 1138.0559,131.682424 C1141.09793,128.7656 1142.37097,124.747412 1142.78282,121.63702 C1142.56711,116.918118 1139.89239,105.738729 1106.83225,98.9443737 C1106.7452,98.9300867 1106.6654,98.916514 1106.5856,98.894369 C1106.62913,98.9015126 1106.67265,98.916514 1106.72343,98.9236575 C1106.8883,98.9589839 1106.38055,98.7955671 1105.41541,98.4961161 C1092.3788,95.6534192 1082.67582,92.0404206 1074.92486,87.148989 C1058.07976,76.5122838 1054.84422,62.3609653 1055.09088,52.35289 C1055.44635,37.851539 1060.21986,26.386185 1069.28081,18.2897164 C1078.40705,10.1232413 1091.46526,6 1108.15076,6 C1110.32603,6 1112.56592,6.07053552 1114.86581,6.21069265 C1117.66633,6.23369133 1118.95273,6.52625078 1115.93673,6.31288629 C1115.90771,6.31145759 1116.55794,7.16449416 1116.53618,7.16235111 C1116.55794,7.16449416 1115.90771,6.31145759 1115.93673,6.31288629 C1127.67461,7.14367798 1140.86341,11.3590707 1156.2576,19.1990869 C1163.37432,22.8244246 1166.16008,31.4466565 1162.47476,38.4544523 C1159.89939,43.3620524 1154.82845,46.1773147 1149.57614,46.1773147 C1147.33448,46.1773147 1145.05655,45.6622667 1142.92371,44.5771656 C1131.25837,38.6401839 1121.47922,35.3541634 1113.85467,34.8112557 C1113.84742,34.8112557 1113.84016,34.8112557 1113.84016,34.8112557 C1113.84016,34.8112557 1113.84742,34.8112557 1113.85467,34.8112557 C1113.95049,34.8189581 1111.9466,34.7204477 1108.97485,34.5724258 Z M1143.36725,120.775316 C1143.32426,120.722273 1143.28394,120.680103 1143.24621,120.649725 C1143.2833,120.698331 1143.32367,120.74012 1143.36725,120.775316 Z" id="Combined-Shape"></path>
                <path d="M772.932055,3.41422747 L832.932055,37.7424801 C839.158336,41.3047692 843,47.9287216 843,55.1020388 L843,123.445427 C843,130.618744 839.158336,137.242696 832.932055,140.804985 L772.932055,175.133238 C766.77866,178.653826 759.22134,178.653826 753.067945,175.133238 L693.067945,140.804985 C686.841664,137.242696 683,130.618744 683,123.445427 L683,55.1020388 C683,47.9287216 686.841664,41.3047692 693.067945,37.7424801 L753.067945,3.41422747 C759.22134,-0.106360939 766.77866,-0.106360939 772.932055,3.41422747 Z M772.932055,36.0826545 C766.77866,32.5620661 759.22134,32.5620661 753.067945,36.0826545 L722.067945,53.8189183 C715.841664,57.3812074 712,64.0051599 712,71.178477 L712,106.337887 C712,113.511205 715.841664,120.135157 722.067945,123.697446 L753.067945,141.43371 C759.22134,144.954298 766.77866,144.954298 772.932055,141.43371 L803.932055,123.697446 C810.158336,120.135157 814,113.511205 814,106.337887 L814,71.178477 C814,64.0051599 810.158336,57.3812074 803.932055,53.8189183 L772.932055,36.0826545 Z" id="Combined-Shape"></path>
            </g>
        </g>
    </g>
</svg>